{"title":"Rip Her Up - Krystal Boyd","uid":8151966,"size":452036322,"categoryP":"porn","categoryS":"movie_clips","magnet":"?xt=urn:btih:9bae218b008f922ad57eae8b0cfefd54a405d4dc&amp;dn=Rip+Her+Up+-+Krystal+Boyd&amp;tr=udp%3A%2F%2Ftracker.openbittorrent.com%3A80&amp;tr=udp%3A%2F%2Fopen.demonii.com%3A1337&amp;tr=udp%3A%2F%2Ftracker.coppersurfer.tk%3A6969&amp;tr=udp%3A%2F%2Fexodus.desync.com%3A6969","seeders":8,"leechers":3,"uploader":"athklym","files":1,"time":1361061640,"description":"\n\nKrystal is one teen cutie with long hair and hot body that is irresistible. This horny guy certainly found her irresistible and he will do whatever it takes to get a taste of her skin. He gets horny when she looks to him in that special way, he grabs a handful of her long hair and pulls her back to him, he knows she likes that.\n\nRipHerUp_Krystal_Boyd.mp4\nFormat : MPEG-4\nFormat profile : Base Media / Version 2\nCodec ID : mp42\nFile size : 431 MiB\nDuration : 28mn 54s\nOverall bit rate mode : Variable\nOverall bit rate : 2 085 Kbps\nEncoded date : UTC 2012-02-07 22:13:50\nTagged date : UTC 2012-02-07 22:13:50\nÂ©TIM : 00:00:00:00\n\nVideo\nID : 1\nFormat : AVC\nFormat/Info : Advanced Video Codec\nFormat profile : &lt;a class=&quot;__cf_email__&quot; href=&quot;/cdn-cgi/l/email-protection&quot; data-cfemail=&quot;460e2f212e060a726877&quot;&gt;[email&amp;#160;protected]&lt;/a&gt;&lt;script cf-hash='f9e31' type=&quot;text/javascript&quot;&gt;\n/* &lt;![CDATA[ */!function(){try{var t=&quot;currentScript&quot;in document?document.currentScript:function(){for(var t=document.getElementsByTagName(&quot;script&quot;),e=t.length;e--;)if(t[e].getAttribute(&quot;cf-hash&quot;))return t[e]}();if(t&amp;&amp;t.previousSibling){var e,r,n,i,c=t.previousSibling,a=c.getAttribute(&quot;data-cfemail&quot;);if(a){for(e=&quot;&quot;,r=parseInt(a.substr(0,2),16),n=2;a.length-n;n+=2)i=parseInt(a.substr(n,2),16)^r,e+=String.fromCharCode(i);e=document.createTextNode(e),c.parentNode.replaceChild(e,c)}}}catch(u){}}();/* ]]&gt; */&lt;/script&gt;\nFormat settings, CABAC : Yes\nFormat settings, ReFrames : 3 frames\nCodec ID : avc1\nCodec ID/Info : Advanced Video Coding\nDuration : 28mn 54s\nBit rate mode : Constant\nBit rate : 2 000 Kbps\nWidth : 640 pixels\nHeight : 360 pixels\nDisplay aspect ratio : 16:9\nFrame rate mode : Constant\nFrame rate : 50.000 fps\nStandard : PAL\nColor space : YUV\nChroma subsampling : 4:2:0\nBit depth : 8 bits\nScan type : Progressive\nBits/(Pixel*Frame) : 0.174\nStream size : 410 MiB (95%)\nLanguage : English\nEncoded date : UTC 2012-02-07 22:13:50\nTagged date : UTC 2012-02-07 22:13:50\nColor primaries : BT.601 PAL\nTransfer characteristics : BT.470 System B, BT.470 System G\nMatrix coefficients : BT.601\n\nAudio\nID : 2\nFormat : AAC\nFormat/Info : Advanced Audio Codec\nFormat profile : LC\nCodec ID : 40\nDuration : 28mn 54s\nSource duration : 28mn 54s\nBit rate mode : Variable\nBit rate : 93.4 Kbps\nMaximum bit rate : 154 Kbps\nChannel(s) : 2 channels\nChannel positions : Front: L R\nSampling rate : 48.0 KHz\nCompression mode : Lossy\nStream size : 19.3 MiB (4%)\nSource stream size : 19.3 MiB (4%)\nLanguage : English\nEncoded date : UTC 2012-02-07 22:13:50\nTagged date : UTC 2012-02-07 22:13:50","torrent":{"xt":"urn:btih:9bae218b008f922ad57eae8b0cfefd54a405d4dc","amp;dn":"Rip+Her+Up+-+Krystal+Boyd","amp;tr":["udp%3A%2F%2Ftracker.openbittorrent.com%3A80","udp%3A%2F%2Fopen.demonii.com%3A1337","udp%3A%2F%2Ftracker.coppersurfer.tk%3A6969","udp%3A%2F%2Fexodus.desync.com%3A6969"],"infoHash":"9bae218b008f922ad57eae8b0cfefd54a405d4dc","infoHashBuffer":{"type":"Buffer","data":[155,174,33,139,0,143,146,42,213,126,174,139,12,254,253,84,164,5,212,220]},"announce":[],"urlList":[]}}